<?xml version="1.0" encoding="utf-8"?>
<!-- Generator: Adobe Illustrator 16.0.0, SVG Export Plug-In . SVG Version: 6.00 Build 0)  -->
<!DOCTYPE svg PUBLIC "-//W3C//DTD SVG 1.1//EN" "http://www.w3.org/Graphics/SVG/1.1/DTD/svg11.dtd">
<svg version="1.1" id="Layer_1" xmlns="http://www.w3.org/2000/svg" xmlns:xlink="http://www.w3.org/1999/xlink" x="0px" y="0px"
	 width="108px" height="76px" viewBox="60.375 0 108 76" enable-background="new 60.375 0 108 76" xml:space="preserve">
<path fill="#FF324D" d="M157.945,66.439l-0.723-3.651c-0.176-1.039-0.408-2.069-0.617-3.104l-0.695-3.51l0,0
	c-0.426-2.149-0.852-4.302-1.277-6.451h0.002l-5.525-27.979c0-0.001,0-0.001,0-0.002c0.004-0.141-0.004-0.294-0.086-0.367
	c-0.404-0.871-2.133-1.318-2.133-1.318l0,0c-0.933-0.369-1.903-0.607-2.989-0.417c-0.864,0.151-1.764,0.103-2.778,0.15
	c0.133-0.473,0.21-0.791,0.314-1.101c0.433-1.301,0.872-2.601,1.313-3.899c0,0,0.207-0.526,0.209-1.25
	c0.022-0.072,0.033-0.154,0.017-0.25c-0.012-0.066-0.03-0.13-0.042-0.195c-0.02-0.163-0.048-0.331-0.096-0.502
	c0,0-0.035-0.754-0.499-1.607c-0.003-0.006-0.006-0.013-0.01-0.019c-0.252-0.457-0.626-0.941-1.191-1.351v0.01
	c-0.909-0.77-2.014-1.183-3.229-1.351c-0.362-0.05-0.573,0.082-0.309,0.474c-0.422-0.823-1.29-0.497-1.938-0.738
	c-1.477-0.549-3-0.685-4.55-0.401c-2.602,0.476-4.825,1.59-6.33,3.811c-0.003,0-0.015,0-0.015,0s-0.447,0.543-0.787,1.397
	c-0.011,0.021-0.019,0.044-0.026,0.069c-0.108,0.283-0.205,0.596-0.268,0.935c0,0.005,0,0.008-0.001,0.013
	c-0.799,2.307-1.568,4.625-2.38,6.928c-0.098,0.278-0.276,0.542-0.48,0.778c-0.596,0.177-1.033,0.723-1.033,1.376
	c0,0.797,0.646,1.442,1.442,1.442s1.442-0.646,1.442-1.442c0-0.457-0.216-0.858-0.547-1.122c-0.066-0.275-0.007-0.535,0.096-0.835
	c0.659-1.919,1.305-3.843,1.954-5.765l0.001-0.002c0.087-0.257,0.175-0.514,0.261-0.771c0.25-0.722,0.622-1.759,0.875-2.286
	c1.231-2.108,3.153-3.25,5.51-3.731c0.897-0.184,1.845-0.132,2.769-0.189c-0.025,0.284-0.05,0.346-0.095,0.365
	c-0.207,0.088-0.419,0.163-0.628,0.246c-2.216,0.87-3.863,2.255-4.822,4.246c-0.004,0.003-0.01,0.001-0.014,0.005
	c-0.256,0.217-1.742,4.919-1.742,4.919l0.003,0.002c-0.113,0.344-0.217,0.689-0.294,1.041c-0.244,1.122-0.81,1.542-1.957,1.533
	c-1.259-0.011-1.435,0.361-0.996,1.557c0.347,0.943-0.007,1.938-0.855,2.396c-0.818,0.444-1.871,0.219-2.427-0.521
	c-0.608-0.808-0.506-1.881,0.248-2.6c0.17-0.162,0.346-0.317,0.563-0.517c-0.169-0.083-0.24-0.149-0.309-0.146
	c-0.512,0.019-1.023,0.039-1.536,0.058h0.001l-0.083,0.004c-1.23,0.045-2.46,0.094-3.689,0.172
	c-0.015,0.001-0.029,0.011-0.044,0.014l-0.7,0.034c-0.162,0.001-0.413-0.05-0.458,0.023l-2.702,4.931l1.298-0.014
	c4.447,0.003,8.895,0.009,13.341-0.015l-0.001,0.001l2.887,0.207c0.703,0.292,1.078,0.859,1.045,1.646
	c-0.042,1.021-0.75,1.614-1.96,1.621c-1.463,0.008-2.926,0.002-4.389,0.002c-10.703,0-21.406,0-32.109,0
	c-0.254,0-0.528-0.052-0.752,0.028c-0.006,0.002-0.009,0.009-0.014,0.013H89.43c-0.032-0.002-0.065-0.002-0.098,0h-0.755
	c0,0,0-0.006-0.001-0.006c-0.147,0.004-0.294,0.004-0.441,0.006h-2.81v0.105c-0.112,0.012-0.225,0.018-0.337,0.033
	c-0.69,0.097-1.126,0.792-0.972,1.462c0.121,0.526,0.542,1.097,0.995,1.403c0.102,0.068,0.208,0.107,0.314,0.129v0.02h36.632
	c0.217,0.016,0.432,0.042,0.64,0.09c0.789,0.188,1.286,0.883,1.269,1.678c-0.018,0.797-0.539,1.439-1.334,1.629
	c-0.109,0.026-0.218,0.047-0.316,0.065H93.519v0.027c-0.241,0.003-0.482,0.001-0.723,0.006c-0.937,0.019-1.548,0.683-1.551,1.545
	c-0.002,0.854,0.618,1.519,1.543,1.554c0.243,0.008,0.487,0.008,0.731,0.014v0.009h0.441c0.243,0.003,0.486,0.002,0.729,0h11.659
	c0.003,0,0.004,0,0.007,0c0.015,0,0.03,0,0.044,0h2.275c0.099,0.003,0.199,0.001,0.298,0.006c0.131,0.005,0.25,0.003,0.362-0.006
	h1.756c0.002,0.056-0.001,0.108,0.004,0.165c0.146-0.061,0.29-0.114,0.433-0.165h1.91c0.103,0.083,0.226,0.108,0.394,0h0.976
	c1.086,0.161,2.107,0.639,1.915,1.896c-0.312,1.217-0.84,1.594-2.231,1.596c-3.492,0.005-6.983-0.004-10.476,0.013
	c-0.197,0.001-0.5-0.085-0.654,0.033h-1.026c-0.031-0.005-0.063-0.02-0.094-0.021c-2.854-0.042-5.709-0.041-8.563,0
	c-0.033,0-0.066,0.017-0.098,0.021h-1.27c-0.008-0.003-0.017-0.017-0.026-0.017c-1.914-0.031-3.83-0.031-5.745,0.002
	c-0.008,0-0.016,0.012-0.024,0.015h-1.206c-0.03-0.005-0.059-0.02-0.088-0.02c-2.895-0.04-5.791-0.04-8.686-0.002
	c-0.032,0-0.064,0.015-0.096,0.021h-3.744v0.004c-0.237,0.001-0.474-0.002-0.711,0c-1.039,0.007-1.696,0.651-1.677,1.589
	c0.016,0.825,0.766,1.543,1.664,1.557c0.801,0.01,1.603,0.019,2.404,0.004h16.014c0.087,0.078,0.248,0.045,0.39,0h27.686
	c0.886,0.121,1.434,0.652,1.527,1.459c0.131,1.135-0.626,1.953-1.877,1.963c-2.401,0.017-4.801,0-7.202,0.017h-0.405
	c-0.162-0.002-0.411-0.072-0.558,0h-1.668c-1.253-0.026-2.508,0.014-3.76-0.022c-0.154-0.006-0.298,0.004-0.434,0.022h-1.211
	c-0.065-0.008-0.137-0.015-0.221-0.013c-0.731,0.011-1.463,0-2.194,0c-2.362,0-4.725-0.006-7.087,0.013
	c-0.149,0-0.397-0.063-0.539,0h-1.76c-1.114-0.022-2.229-0.022-3.344,0H85.98c-0.139-0.054-0.374,0-0.52,0
	c-2.106-0.019-4.214-0.021-6.32-0.005c-1.039,0.007-1.696,0.652-1.677,1.588c0.016,0.825,0.766,1.544,1.664,1.557
	c0.356,0.006,0.713,0.01,1.07,0.014v0.002H80.3c0.282,0.004,0.563,0,0.845,0h15.866c0.612,0.041,1.279,0.041,1.902,0h6.447
	c0.2,0.008,0.4,0.01,0.6,0.021c0.54,0.029,1.241,0.257,1.541,0.646c0.315,0.41,0.417,1.164,0.292,1.692
	c-0.185,0.779-0.887,1.097-1.706,1.095c-2.785-0.008-5.571,0.006-8.356-0.01c-0.62-0.005-1.102,0.18-1.394,0.737
	c-0.871,1.667-1.736,3.338-2.597,5.013c-0.096,0.186-0.144,0.396-0.222,0.616c0.173,0.058,0.275,0.106,0.382,0.124
	c2.231,0.361,4.463,0.721,6.694,1.08h-0.002l13.457,2.188c0.059,0.01,0.118,0.02,0.176,0.029l13.792,2.241
	c0.044,0.008,0.087,0.015,0.13,0.021l0.023,0.004c0,0,4.66,1.32,12.886-0.256l1.307-0.104c0.496-0.038,0.991-0.074,1.487-0.112
	c0.03-0.002,0.054-0.009,0.08-0.011l4.659-0.366c0.896-0.063,1.79-0.135,2.685-0.211l3.912-0.307
	c-0.002,0.004-0.002,0.008-0.004,0.013C156.204,66.584,157.053,66.514,157.945,66.439z M126.544,20.25
	c0.186-0.552,0.38-1.119,0.573-1.69l0.001,0.001l1.208-3.571c0.025-0.074,0.052-0.146,0.076-0.222l0.363-1.073
	c1.13-2.833,3.441-4.198,6.422-4.701c0.292-0.049,0.667,0.078,0.934,0.239c1.26,0.763,1.938,1.916,2.002,3.308
	c0,0.013,0,0.027,0.001,0.04c0.005,0.147-0.005,0.302-0.014,0.455c-0.037,0.369-0.123,0.79-0.23,1.205
	c-0.018,0.04-0.028,0.076-0.03,0.111c-0.179,0.673-0.4,1.313-0.528,1.663c-0.007,0.02-0.018,0.039-0.025,0.058
	c-0.017,0.044-0.031,0.09-0.047,0.135c-0.02,0.052-0.032,0.086-0.032,0.086l0.004-0.002c-0.605,1.694-1.146,3.411-1.752,5.105
	c-0.076,0.21-0.227,0.392-0.375,0.577c-0.706,0.091-1.252,0.687-1.252,1.417c0,0.792,0.643,1.435,1.436,1.435
	c0.792,0,1.435-0.643,1.435-1.435c0-0.427-0.19-0.806-0.485-1.069c0.008-0.323,0.122-0.636,0.235-0.965
	c0.646-1.887,1.284-3.776,1.92-5.667l0,0l0.003-0.011c0.029-0.088,0.059-0.175,0.089-0.263c0.083-0.248,0.166-0.494,0.249-0.741
	c0.048-0.142,0.063-0.3,0.102-0.533l0.184-0.643c0.082-0.175,0.133-0.357,0.156-0.545l0.008-0.03l-0.004-0.014
	c0.043-0.426-0.035-0.877-0.178-1.328c-0.022-0.072-0.048-0.143-0.075-0.213c-0.229-0.597-0.596-1.149-0.878-1.731
	c-0.113-0.233-0.186-0.485-0.276-0.729c1.271,0.426,2.451,0.996,3.378,1.964c0.017,0.033,0.906,1.755,0.712,3.227
	c0,0,0,0.001,0,0.002c-0.519,1.672-1.042,3.343-1.521,5.027c-0.163,0.573-0.5,0.826-1.03,0.741
	c-1.424-0.229-2.048,0.501-2.223,1.783c-0.05,0.366-0.097,0.783,0.029,1.11c0.34,0.886-0.102,1.58-0.432,2.313
	c-0.206,0.06-0.417,0.107-0.619,0.182c-0.748,0.278-1.443,0.184-2.021-0.362c-0.143-0.135-0.258-0.278-0.351-0.427
	c-0.01-0.023-0.024-0.047-0.04-0.071c-0.123-0.221-0.196-0.456-0.219-0.705c-0.017-0.541,0.213-1.184,0.512-1.776
	c0.615,0.063,1.007-0.53,1.123-1.779c-0.697,0-1.395-0.044-2.082,0.025c-0.002,0-0.005,0.002-0.009,0.003L126.544,20.25z
	 M115.182,55.03c-0.046,0.009-0.092,0.01-0.137,0.005l0,0C115.09,55.04,115.136,55.039,115.182,55.03z"/>
</svg>
