<?xml version="1.0" encoding="utf-8"?>
<!-- Generator: Adobe Illustrator 16.0.0, SVG Export Plug-In . SVG Version: 6.00 Build 0)  -->
<!DOCTYPE svg PUBLIC "-//W3C//DTD SVG 1.1//EN" "http://www.w3.org/Graphics/SVG/1.1/DTD/svg11.dtd">
<svg version="1.1" id="Layer_1" xmlns="http://www.w3.org/2000/svg" xmlns:xlink="http://www.w3.org/1999/xlink" x="0px" y="0px"
	 width="295.75px" height="76px" viewBox="0 0 295.75 76" enable-background="new 0 0 295.75 76" xml:space="preserve">
<path fill="#FEFEFF" d="M91.812,65.076l-0.724-3.651c-0.175-1.039-0.407-2.069-0.616-3.104l-0.696-3.51l0,0
	c-0.426-2.149-0.851-4.302-1.277-6.451H88.5l-5.526-27.979c0-0.001,0-0.001,0-0.002c0.004-0.141-0.003-0.294-0.086-0.367
	c-0.404-0.871-2.133-1.318-2.133-1.318l0,0c-0.933-0.369-1.903-0.607-2.989-0.417c-0.864,0.151-1.764,0.103-2.778,0.15
	c0.133-0.473,0.21-0.791,0.314-1.101c0.433-1.301,0.872-2.601,1.313-3.899c0,0,0.207-0.526,0.209-1.25
	c0.022-0.072,0.033-0.154,0.017-0.25c-0.012-0.066-0.03-0.13-0.042-0.195c-0.02-0.163-0.048-0.331-0.096-0.502
	c0,0-0.035-0.754-0.499-1.607c-0.003-0.006-0.006-0.013-0.01-0.019c-0.252-0.457-0.626-0.941-1.191-1.351v0.01
	c-0.909-0.77-2.014-1.183-3.229-1.351c-0.362-0.05-0.573,0.082-0.309,0.474c-0.422-0.823-1.29-0.497-1.938-0.738
	c-1.477-0.549-3-0.685-4.55-0.401c-2.602,0.476-4.825,1.59-6.33,3.811c-0.003,0-0.015,0-0.015,0s-0.447,0.543-0.787,1.397
	c-0.011,0.021-0.019,0.044-0.026,0.069c-0.108,0.283-0.205,0.596-0.268,0.935c0,0.005,0,0.008-0.001,0.013
	c-0.799,2.307-1.568,4.625-2.38,6.928c-0.098,0.278-0.276,0.542-0.48,0.778c-0.596,0.177-1.033,0.723-1.033,1.376
	c0,0.797,0.646,1.442,1.442,1.442s1.442-0.646,1.442-1.442c0-0.457-0.216-0.858-0.547-1.122c-0.066-0.275-0.007-0.535,0.096-0.835
	c0.659-1.919,1.305-3.843,1.954-5.765l0.001-0.002c0.087-0.257,0.175-0.514,0.261-0.771c0.25-0.722,0.622-1.759,0.875-2.286
	c1.231-2.108,3.153-3.25,5.51-3.731c0.897-0.184,1.845-0.132,2.769-0.189c-0.025,0.284-0.05,0.346-0.095,0.365
	c-0.207,0.088-0.419,0.163-0.628,0.246c-2.216,0.87-3.863,2.255-4.822,4.246c-0.004,0.003-0.01,0.001-0.014,0.005
	c-0.256,0.217-1.742,4.919-1.742,4.919l0.003,0.002c-0.113,0.344-0.217,0.689-0.294,1.041c-0.244,1.122-0.81,1.542-1.957,1.533
	c-1.259-0.011-1.435,0.361-0.996,1.557c0.347,0.943-0.007,1.938-0.855,2.396c-0.818,0.444-1.871,0.219-2.427-0.521
	c-0.608-0.808-0.506-1.881,0.248-2.6c0.17-0.162,0.346-0.317,0.563-0.517c-0.169-0.083-0.24-0.149-0.309-0.146
	c-0.512,0.019-1.023,0.039-1.536,0.058h0.001l-0.083,0.004c-1.23,0.045-2.46,0.094-3.689,0.172
	c-0.015,0.001-0.029,0.011-0.044,0.014l-0.7,0.034c-0.162,0.001-0.413-0.05-0.458,0.023l-2.702,4.931l1.298-0.014
	c4.447,0.003,8.895,0.009,13.341-0.015l-0.001,0.001l2.887,0.207c0.703,0.292,1.078,0.859,1.045,1.646
	c-0.042,1.021-0.75,1.614-1.96,1.621c-1.463,0.008-2.926,0.002-4.389,0.002c-10.703,0-21.406,0-32.109,0
	c-0.254,0-0.528-0.052-0.752,0.028c-0.006,0.002-0.009,0.009-0.014,0.013h-0.975c-0.032-0.002-0.065-0.002-0.098,0h-0.755
	c0,0,0-0.006-0.001-0.006c-0.147,0.004-0.294,0.004-0.441,0.006h-2.81v0.105c-0.112,0.012-0.225,0.018-0.337,0.033
	c-0.69,0.097-1.126,0.792-0.972,1.462c0.121,0.526,0.542,1.097,0.995,1.403c0.102,0.068,0.208,0.107,0.314,0.129v0.02h36.632
	c0.217,0.016,0.432,0.042,0.64,0.09c0.789,0.188,1.286,0.883,1.269,1.678c-0.018,0.797-0.539,1.439-1.334,1.629
	c-0.109,0.026-0.218,0.047-0.316,0.065H27.385v0.027c-0.241,0.003-0.482,0.001-0.723,0.006c-0.937,0.019-1.548,0.683-1.551,1.545
	c-0.002,0.854,0.618,1.519,1.543,1.554c0.243,0.008,0.487,0.008,0.731,0.014v0.009h0.441c0.243,0.003,0.486,0.002,0.729,0h11.659
	c0.003,0,0.004,0,0.007,0c0.015,0,0.03,0,0.044,0h2.275c0.099,0.003,0.199,0.001,0.298,0.006c0.131,0.005,0.25,0.003,0.362-0.006
	h1.756c0.002,0.056-0.001,0.108,0.004,0.165c0.146-0.061,0.29-0.114,0.433-0.165h1.91c0.103,0.083,0.226,0.108,0.394,0h0.976
	c1.086,0.161,2.107,0.639,1.915,1.896c-0.312,1.217-0.84,1.594-2.231,1.596c-3.492,0.005-6.983-0.004-10.476,0.013
	c-0.197,0.001-0.5-0.085-0.654,0.033h-1.026c-0.031-0.005-0.063-0.02-0.094-0.021c-2.854-0.042-5.709-0.041-8.563,0
	c-0.033,0-0.066,0.017-0.098,0.021h-1.27c-0.008-0.003-0.017-0.017-0.026-0.017c-1.914-0.031-3.83-0.031-5.745,0.002
	c-0.008,0-0.016,0.012-0.024,0.015h-1.206c-0.03-0.005-0.059-0.02-0.088-0.02c-2.895-0.04-5.791-0.04-8.686-0.002
	c-0.032,0-0.064,0.015-0.096,0.021H6.561v0.004c-0.237,0.001-0.474-0.002-0.711,0c-1.039,0.007-1.696,0.651-1.677,1.589
	c0.016,0.825,0.766,1.543,1.664,1.557c0.801,0.01,1.603,0.019,2.404,0.004h16.014c0.087,0.078,0.248,0.045,0.39,0h27.686
	c0.886,0.121,1.434,0.652,1.527,1.459c0.131,1.135-0.626,1.953-1.877,1.963c-2.401,0.017-4.801,0-7.202,0.017h-0.405
	c-0.162-0.002-0.411-0.072-0.558,0h-1.668c-1.253-0.026-2.508,0.014-3.76-0.022c-0.154-0.006-0.298,0.004-0.434,0.022h-1.211
	c-0.065-0.008-0.137-0.015-0.221-0.013c-0.731,0.011-1.463,0-2.194,0c-2.362,0-4.725-0.006-7.087,0.013
	c-0.149,0-0.397-0.063-0.539,0h-1.76c-1.114-0.022-2.229-0.022-3.344,0h-1.752c-0.139-0.054-0.374,0-0.52,0
	c-2.106-0.019-4.214-0.021-6.32-0.005c-1.039,0.007-1.696,0.652-1.677,1.588c0.016,0.825,0.766,1.544,1.664,1.557
	c0.356,0.006,0.713,0.01,1.07,0.014v0.002h0.103c0.282,0.004,0.563,0,0.845,0h15.866c0.612,0.041,1.279,0.041,1.902,0h6.447
	c0.2,0.008,0.4,0.01,0.6,0.021c0.54,0.029,1.241,0.257,1.541,0.646c0.315,0.41,0.417,1.164,0.292,1.692
	c-0.185,0.779-0.887,1.097-1.706,1.095c-2.785-0.008-5.571,0.006-8.356-0.01c-0.62-0.005-1.102,0.18-1.394,0.737
	c-0.871,1.667-1.736,3.338-2.597,5.013c-0.096,0.186-0.144,0.396-0.222,0.616c0.173,0.058,0.275,0.106,0.382,0.124
	c2.231,0.361,4.463,0.721,6.694,1.08h-0.002l13.457,2.188c0.059,0.01,0.118,0.02,0.176,0.029l13.792,2.241
	c0.044,0.008,0.087,0.015,0.13,0.021l0.023,0.004c0,0,4.66,1.32,12.886-0.256l1.307-0.104c0.496-0.038,0.991-0.074,1.487-0.112
	c0.03-0.002,0.054-0.009,0.08-0.011l4.659-0.366c0.896-0.063,1.79-0.135,2.685-0.211l3.911-0.307
	c-0.001,0.004-0.002,0.008-0.004,0.013C90.07,65.221,90.919,65.15,91.812,65.076z M60.41,18.887c0.186-0.552,0.38-1.119,0.573-1.69
	l0.001,0.001l1.208-3.571c0.025-0.074,0.052-0.146,0.076-0.222l0.363-1.073c1.13-2.833,3.441-4.198,6.422-4.701
	c0.292-0.049,0.667,0.078,0.934,0.239c1.26,0.763,1.938,1.916,2.002,3.308c0,0.013,0,0.027,0.001,0.04
	c0.005,0.147-0.005,0.302-0.014,0.455c-0.037,0.369-0.123,0.79-0.23,1.205c-0.018,0.04-0.028,0.076-0.03,0.111
	c-0.179,0.673-0.4,1.313-0.528,1.663c-0.007,0.02-0.018,0.039-0.025,0.058c-0.017,0.044-0.031,0.09-0.047,0.135
	c-0.02,0.052-0.032,0.086-0.032,0.086l0.004-0.002c-0.605,1.694-1.146,3.411-1.752,5.105c-0.076,0.21-0.227,0.392-0.375,0.577
	c-0.706,0.091-1.252,0.687-1.252,1.417c0,0.792,0.643,1.435,1.436,1.435c0.792,0,1.435-0.643,1.435-1.435
	c0-0.427-0.19-0.806-0.485-1.069c0.008-0.323,0.122-0.636,0.235-0.965c0.646-1.887,1.284-3.776,1.92-5.667l0,0l0.003-0.011
	c0.029-0.088,0.059-0.175,0.089-0.263c0.083-0.248,0.166-0.494,0.249-0.741c0.048-0.142,0.063-0.3,0.102-0.533l0.184-0.643
	c0.082-0.175,0.133-0.357,0.156-0.545l0.008-0.03l-0.004-0.014c0.043-0.426-0.035-0.877-0.178-1.328
	c-0.022-0.072-0.048-0.143-0.075-0.213c-0.229-0.597-0.596-1.149-0.878-1.731C71.792,8.042,71.72,7.79,71.63,7.546
	c1.271,0.426,2.451,0.996,3.378,1.964c0.017,0.033,0.906,1.755,0.712,3.227c0,0,0,0.001,0,0.002
	c-0.519,1.672-1.042,3.343-1.521,5.027c-0.163,0.573-0.5,0.826-1.03,0.741c-1.424-0.229-2.048,0.501-2.223,1.783
	c-0.05,0.366-0.097,0.783,0.029,1.11c0.34,0.886-0.102,1.58-0.432,2.313c-0.206,0.06-0.417,0.107-0.619,0.182
	c-0.748,0.278-1.443,0.184-2.021-0.362c-0.143-0.135-0.258-0.278-0.351-0.427c-0.01-0.023-0.024-0.047-0.04-0.071
	c-0.123-0.221-0.196-0.456-0.219-0.705c-0.017-0.541,0.213-1.184,0.512-1.776c0.615,0.063,1.007-0.53,1.123-1.779
	c-0.697,0-1.395-0.044-2.082,0.025c-0.002,0-0.005,0.002-0.009,0.003L60.41,18.887z M49.048,53.667
	c-0.046,0.009-0.092,0.01-0.137,0.005l0,0C48.956,53.677,49.002,53.676,49.048,53.667z"/>
<g>
	<path fill="#FEFEFF" d="M123.352,51.281v3.043h3.318v0.979h-3.318v3.135h3.709v0.979h-4.896v-9.116h4.896v0.979h-3.709V51.281z"/>
	<path fill="#FEFEFF" d="M132.598,59.418l-1.697-2.664l-1.633,2.664h-1.24l2.313-3.553l-2.313-3.604h1.345l1.698,2.651l1.619-2.651
		h1.24l-2.299,3.539l2.313,3.618H132.598z"/>
	<path fill="#FEFEFF" d="M137.359,52.555c0.466-0.273,1.008-0.41,1.626-0.41c0.636,0,1.213,0.151,1.73,0.457
		c0.519,0.305,0.926,0.732,1.221,1.285c0.297,0.555,0.445,1.195,0.445,1.928c0,0.723-0.148,1.366-0.445,1.933
		c-0.295,0.565-0.702,1.006-1.221,1.319c-0.519,0.313-1.096,0.47-1.73,0.47c-0.609,0-1.146-0.138-1.612-0.411
		s-0.821-0.616-1.063-1.025v4.715h-1.188V52.261h1.188v1.319C136.543,53.171,136.893,52.829,137.359,52.555z M140.84,54.402
		c-0.219-0.399-0.512-0.705-0.882-0.914s-0.776-0.313-1.222-0.313c-0.436,0-0.838,0.106-1.208,0.32s-0.666,0.522-0.888,0.928
		c-0.224,0.404-0.334,0.873-0.334,1.403c0,0.539,0.111,1.013,0.334,1.417c0.222,0.405,0.518,0.714,0.888,0.928
		c0.37,0.213,0.772,0.319,1.208,0.319c0.443,0,0.852-0.106,1.222-0.319c0.37-0.214,0.663-0.522,0.882-0.928
		c0.217-0.404,0.326-0.882,0.326-1.431C141.167,55.273,141.057,54.804,140.84,54.402z"/>
	<path fill="#FEFEFF" d="M150.438,56.283h-5.72c0.043,0.705,0.285,1.256,0.726,1.652c0.44,0.396,0.973,0.594,1.601,0.594
		c0.514,0,0.941-0.119,1.286-0.358c0.344-0.239,0.584-0.56,0.725-0.96h1.279c-0.191,0.688-0.574,1.247-1.148,1.678
		c-0.574,0.432-1.289,0.646-2.142,0.646c-0.68,0-1.287-0.152-1.822-0.457s-0.955-0.737-1.26-1.299
		c-0.306-0.563-0.457-1.213-0.457-1.953c0-0.739,0.147-1.389,0.443-1.945c0.296-0.559,0.712-0.986,1.247-1.287
		c0.535-0.3,1.151-0.449,1.849-0.449c0.68,0,1.279,0.147,1.802,0.443c0.523,0.296,0.926,0.703,1.207,1.221
		c0.283,0.52,0.426,1.104,0.426,1.758C150.477,55.792,150.465,56.031,150.438,56.283z M148.949,54.148
		c-0.199-0.326-0.473-0.574-0.816-0.744c-0.344-0.17-0.725-0.254-1.143-0.254c-0.602,0-1.111,0.19-1.535,0.573
		c-0.422,0.384-0.664,0.914-0.725,1.595h4.519C149.25,54.863,149.15,54.475,148.949,54.148z"/>
	<path fill="#FEFEFF" d="M152.045,53.887c0.297-0.553,0.707-0.98,1.234-1.285c0.525-0.306,1.129-0.457,1.809-0.457
		c0.879,0,1.605,0.213,2.176,0.64c0.568,0.427,0.945,1.019,1.129,1.776h-1.279c-0.121-0.437-0.359-0.779-0.711-1.033
		c-0.354-0.252-0.791-0.377-1.314-0.377c-0.68,0-1.227,0.231-1.645,0.697c-0.418,0.467-0.627,1.126-0.627,1.979
		c0,0.862,0.209,1.528,0.627,1.997c0.418,0.472,0.965,0.707,1.645,0.707c0.523,0,0.959-0.122,1.307-0.366
		c0.35-0.243,0.588-0.593,0.719-1.045h1.279c-0.191,0.731-0.574,1.317-1.148,1.757s-1.293,0.659-2.154,0.659
		c-0.68,0-1.283-0.152-1.809-0.457c-0.527-0.306-0.939-0.735-1.234-1.293c-0.297-0.558-0.445-1.21-0.445-1.959
		C151.6,55.087,151.75,54.441,152.045,53.887z"/>
	<path fill="#FEFEFF" d="M161.422,53.24v4.219c0,0.35,0.074,0.594,0.223,0.738c0.148,0.144,0.404,0.215,0.771,0.215h0.875v1.006
		h-1.07c-0.662,0-1.158-0.152-1.488-0.457s-0.496-0.807-0.496-1.502V53.24h-0.928v-0.979h0.928v-1.802h1.188v1.802h1.867v0.979
		H161.422z"/>
	<path fill="#FEFEFF" d="M178.309,52.477c0.436,0.23,0.777,0.577,1.031,1.038c0.252,0.462,0.379,1.023,0.379,1.685v4.22h-1.176
		v-4.05c0-0.715-0.176-1.26-0.529-1.639c-0.352-0.379-0.83-0.568-1.43-0.568c-0.619,0-1.109,0.197-1.477,0.595
		c-0.365,0.396-0.549,0.968-0.549,1.717v3.944h-1.176v-4.049c0-0.715-0.176-1.26-0.529-1.639c-0.352-0.379-0.828-0.568-1.43-0.568
		c-0.617,0-1.109,0.197-1.477,0.595c-0.365,0.396-0.547,0.968-0.547,1.717v3.944h-1.189v-7.157h1.189v1.032
		c0.234-0.374,0.551-0.662,0.945-0.862c0.396-0.2,0.834-0.301,1.313-0.301c0.602,0,1.133,0.136,1.594,0.405
		c0.461,0.271,0.807,0.666,1.033,1.188c0.199-0.505,0.529-0.896,0.992-1.176c0.461-0.277,0.975-0.418,1.541-0.418
		C177.377,52.13,177.873,52.246,178.309,52.477z"/>
	<path fill="#FEFEFF" d="M182.965,59.078c-0.545-0.305-0.971-0.737-1.279-1.299c-0.311-0.563-0.465-1.213-0.465-1.953
		c0-0.731,0.16-1.379,0.479-1.939c0.316-0.563,0.75-0.992,1.299-1.293c0.549-0.3,1.162-0.449,1.842-0.449s1.293,0.149,1.842,0.449
		c0.549,0.301,0.98,0.729,1.301,1.287c0.316,0.557,0.477,1.206,0.477,1.945c0,0.74-0.164,1.392-0.49,1.953s-0.768,0.994-1.326,1.299
		c-0.557,0.305-1.174,0.457-1.854,0.457C184.115,59.535,183.51,59.383,182.965,59.078z M185.988,58.191
		c0.375-0.201,0.678-0.502,0.906-0.901c0.23-0.4,0.348-0.888,0.348-1.463c0-0.574-0.113-1.063-0.34-1.464
		c-0.227-0.399-0.521-0.697-0.889-0.895c-0.365-0.195-0.762-0.294-1.188-0.294c-0.438,0-0.834,0.099-1.195,0.294
		c-0.361,0.196-0.65,0.494-0.869,0.895c-0.217,0.401-0.326,0.89-0.326,1.464c0,0.584,0.107,1.075,0.32,1.476
		c0.213,0.401,0.498,0.699,0.855,0.896c0.355,0.195,0.748,0.293,1.176,0.293C185.213,58.492,185.613,58.391,185.988,58.191z"/>
	<path fill="#FEFEFF" d="M192.107,52.47c0.387-0.227,0.857-0.34,1.416-0.34v1.229h-0.313c-1.332,0-1.998,0.723-1.998,2.168v3.892
		h-1.188v-7.157h1.188v1.162C191.422,53.015,191.719,52.695,192.107,52.47z"/>
	<path fill="#FEFEFF" d="M201.387,56.283h-5.721c0.043,0.705,0.285,1.256,0.725,1.652c0.441,0.396,0.975,0.594,1.602,0.594
		c0.514,0,0.941-0.119,1.287-0.358c0.344-0.239,0.584-0.56,0.725-0.96h1.279c-0.191,0.688-0.574,1.247-1.148,1.678
		c-0.576,0.432-1.289,0.646-2.143,0.646c-0.68,0-1.287-0.152-1.822-0.457s-0.955-0.737-1.26-1.299
		c-0.305-0.563-0.457-1.213-0.457-1.953c0-0.739,0.146-1.389,0.443-1.945c0.297-0.559,0.713-0.986,1.246-1.287
		c0.535-0.3,1.152-0.449,1.85-0.449c0.68,0,1.279,0.147,1.803,0.443s0.924,0.703,1.207,1.221c0.283,0.52,0.426,1.104,0.426,1.758
		C201.426,55.792,201.412,56.031,201.387,56.283z M199.898,54.148c-0.201-0.326-0.475-0.574-0.816-0.744
		c-0.344-0.17-0.725-0.254-1.143-0.254c-0.602,0-1.113,0.19-1.535,0.573c-0.422,0.384-0.664,0.914-0.727,1.595h4.52
		C200.197,54.863,200.098,54.475,199.898,54.148z"/>
	<path fill="#FEFEFF" d="M202.797,59.262c-0.156-0.156-0.236-0.349-0.236-0.574c0-0.227,0.08-0.418,0.236-0.574
		c0.156-0.157,0.348-0.235,0.574-0.235c0.217,0,0.402,0.078,0.555,0.235c0.152,0.156,0.23,0.348,0.23,0.574
		c0,0.226-0.076,0.418-0.23,0.574c-0.15,0.156-0.338,0.234-0.555,0.234C203.145,59.496,202.953,59.418,202.797,59.262z"/>
	<path fill="#FEFEFF" d="M214.531,54.865c-0.52,0.502-1.309,0.752-2.371,0.752h-1.75v3.801h-1.188v-9.104h2.938
		c1.027,0,1.809,0.248,2.344,0.744c0.537,0.496,0.805,1.137,0.805,1.92C215.307,53.736,215.049,54.365,214.531,54.865z
		 M213.623,54.207c0.313-0.287,0.471-0.696,0.471-1.229c0-1.123-0.645-1.685-1.934-1.685h-1.75v3.343h1.75
		C212.822,54.638,213.309,54.494,213.623,54.207z"/>
	<path fill="#FEFEFF" d="M216.783,53.887c0.297-0.553,0.703-0.98,1.221-1.285c0.52-0.306,1.096-0.457,1.73-0.457
		c0.627,0,1.172,0.135,1.633,0.403c0.461,0.271,0.805,0.61,1.031,1.021v-1.308h1.201v7.157h-1.201v-1.332
		c-0.234,0.418-0.584,0.764-1.051,1.038s-1.008,0.411-1.627,0.411c-0.635,0-1.211-0.156-1.723-0.471
		c-0.516-0.313-0.92-0.752-1.215-1.318c-0.297-0.565-0.445-1.21-0.445-1.934C216.34,55.082,216.488,54.441,216.783,53.887z
		 M222.072,54.416c-0.217-0.4-0.512-0.707-0.881-0.921c-0.371-0.214-0.777-0.32-1.223-0.32c-0.443,0-0.848,0.104-1.215,0.313
		c-0.365,0.209-0.656,0.515-0.875,0.914c-0.217,0.4-0.326,0.871-0.326,1.41c0,0.549,0.109,1.025,0.326,1.431
		c0.219,0.405,0.51,0.714,0.875,0.928c0.367,0.213,0.771,0.319,1.215,0.319c0.445,0,0.852-0.106,1.223-0.319
		c0.369-0.214,0.664-0.522,0.881-0.928c0.219-0.404,0.326-0.878,0.326-1.417S222.291,54.816,222.072,54.416z"/>
	<path fill="#FEFEFF" d="M231.777,52.261l-4.311,10.526h-1.229l1.41-3.447l-2.887-7.079h1.318l2.246,5.8l2.221-5.8H231.777z"/>
	<path fill="#FEFEFF" d="M237.641,58.451h3.188v0.967h-4.375v-9.104h1.188V58.451z"/>
	<path fill="#FEFEFF" d="M248.584,56.283h-5.719c0.043,0.705,0.285,1.256,0.725,1.652c0.439,0.396,0.973,0.594,1.6,0.594
		c0.514,0,0.941-0.119,1.287-0.358c0.344-0.239,0.584-0.56,0.725-0.96h1.279c-0.191,0.688-0.574,1.247-1.148,1.678
		c-0.574,0.432-1.289,0.646-2.143,0.646c-0.68,0-1.285-0.152-1.82-0.457c-0.537-0.305-0.957-0.737-1.262-1.299
		c-0.305-0.563-0.457-1.213-0.457-1.953c0-0.739,0.148-1.389,0.443-1.945c0.297-0.559,0.713-0.986,1.248-1.287
		c0.535-0.3,1.15-0.449,1.848-0.449c0.68,0,1.279,0.147,1.803,0.443s0.926,0.703,1.209,1.221c0.283,0.52,0.424,1.104,0.424,1.758
		C248.625,55.792,248.611,56.031,248.584,56.283z M247.096,54.148c-0.201-0.326-0.473-0.574-0.816-0.744s-0.725-0.254-1.143-0.254
		c-0.602,0-1.111,0.19-1.535,0.573c-0.422,0.384-0.664,0.914-0.725,1.595h4.518C247.395,54.863,247.297,54.475,247.096,54.148z"/>
	<path fill="#FEFEFF" d="M251.25,59.255c-0.436-0.188-0.779-0.448-1.031-0.784c-0.254-0.335-0.393-0.72-0.418-1.154h1.229
		c0.033,0.356,0.201,0.647,0.502,0.875c0.301,0.227,0.693,0.34,1.182,0.34c0.453,0,0.811-0.102,1.072-0.301
		c0.26-0.201,0.391-0.453,0.391-0.759c0-0.313-0.139-0.546-0.418-0.698c-0.277-0.151-0.709-0.303-1.293-0.451
		c-0.531-0.139-0.965-0.279-1.299-0.424c-0.336-0.144-0.623-0.356-0.863-0.641c-0.238-0.281-0.357-0.654-0.357-1.115
		c0-0.365,0.107-0.701,0.326-1.007c0.219-0.305,0.525-0.546,0.928-0.725c0.4-0.179,0.857-0.269,1.371-0.269
		c0.793,0,1.432,0.2,1.92,0.602c0.486,0.4,0.748,0.949,0.783,1.646h-1.188c-0.027-0.374-0.176-0.675-0.451-0.901
		c-0.273-0.226-0.643-0.338-1.104-0.338c-0.426,0-0.768,0.09-1.02,0.272c-0.252,0.185-0.379,0.423-0.379,0.72
		c0,0.234,0.076,0.428,0.23,0.58c0.152,0.152,0.344,0.274,0.572,0.366c0.23,0.091,0.553,0.192,0.961,0.308
		c0.514,0.14,0.932,0.275,1.254,0.41c0.322,0.137,0.6,0.338,0.83,0.607c0.229,0.271,0.35,0.623,0.357,1.058
		c0,0.394-0.107,0.745-0.326,1.06c-0.217,0.313-0.523,0.56-0.92,0.736c-0.396,0.18-0.852,0.269-1.365,0.269
		C252.178,59.535,251.684,59.441,251.25,59.255z"/>
	<path fill="#FEFEFF" d="M258.066,59.255c-0.436-0.188-0.779-0.448-1.031-0.784c-0.252-0.335-0.393-0.72-0.418-1.154h1.229
		c0.033,0.356,0.201,0.647,0.502,0.875c0.301,0.227,0.693,0.34,1.184,0.34c0.451,0,0.809-0.102,1.07-0.301
		c0.262-0.201,0.393-0.453,0.393-0.759c0-0.313-0.141-0.546-0.418-0.698c-0.279-0.151-0.711-0.303-1.293-0.451
		c-0.531-0.139-0.965-0.279-1.301-0.424c-0.334-0.144-0.621-0.356-0.861-0.641c-0.24-0.281-0.359-0.654-0.359-1.115
		c0-0.365,0.109-0.701,0.326-1.007c0.219-0.305,0.527-0.546,0.928-0.725s0.857-0.269,1.371-0.269c0.793,0,1.434,0.2,1.92,0.602
		c0.488,0.4,0.75,0.949,0.783,1.646h-1.188c-0.025-0.374-0.176-0.675-0.449-0.901c-0.275-0.226-0.645-0.338-1.105-0.338
		c-0.426,0-0.766,0.09-1.018,0.272c-0.254,0.185-0.379,0.423-0.379,0.72c0,0.234,0.076,0.428,0.229,0.58s0.344,0.274,0.574,0.366
		c0.23,0.091,0.551,0.192,0.959,0.308c0.514,0.14,0.932,0.275,1.254,0.41c0.322,0.137,0.6,0.338,0.83,0.607
		c0.23,0.271,0.352,0.623,0.359,1.058c0,0.394-0.109,0.745-0.326,1.06c-0.219,0.313-0.525,0.56-0.922,0.736
		c-0.396,0.18-0.852,0.269-1.365,0.269C258.994,59.535,258.502,59.441,258.066,59.255z"/>
</g>
<g>
	<path fill="#FEFEFF" d="M97.361,42.754c-1.635-1.18-2.523-2.909-2.661-5.188h7.017c0.099,1.209,0.634,1.813,1.605,1.813
		c0.357,0,0.659-0.084,0.907-0.253c0.249-0.168,0.372-0.431,0.372-0.788c0-0.495-0.268-0.896-0.802-1.204
		c-0.535-0.307-1.368-0.659-2.498-1.056c-1.348-0.477-2.463-0.941-3.345-1.397c-0.882-0.456-1.641-1.12-2.275-1.991
		c-0.634-0.873-0.941-1.992-0.921-3.36c0-1.368,0.352-2.532,1.055-3.494c0.704-0.961,1.665-1.689,2.884-2.185
		c1.219-0.496,2.591-0.744,4.118-0.744c2.577,0,4.624,0.595,6.14,1.784c1.518,1.189,2.314,2.864,2.395,5.024h-7.106
		c-0.02-0.594-0.168-1.021-0.446-1.278c-0.278-0.257-0.615-0.386-1.011-0.386c-0.278,0-0.505,0.095-0.684,0.282
		c-0.179,0.188-0.268,0.451-0.268,0.788c0,0.476,0.262,0.866,0.788,1.174c0.525,0.308,1.363,0.679,2.513,1.115
		c1.328,0.495,2.424,0.972,3.285,1.427c0.862,0.456,1.61,1.09,2.245,1.902c0.634,0.813,0.952,1.834,0.952,3.063
		c0,1.289-0.316,2.443-0.952,3.463c-0.634,1.021-1.556,1.819-2.765,2.395s-2.646,0.862-4.312,0.862
		C101.072,44.523,98.996,43.934,97.361,42.754z"/>
	<path fill="#FEFEFF" d="M133.41,23.264v21.051h-6.601v-8.207h-6.273v8.207h-6.6V23.264h6.6v7.582h6.273v-7.582H133.41z"/>
	<path fill="#FEFEFF" d="M141.184,43.125c-1.654-0.932-2.969-2.221-3.938-3.865c-0.972-1.645-1.457-3.499-1.457-5.561
		c0-2.061,0.485-3.914,1.457-5.56c0.972-1.645,2.284-2.929,3.938-3.85c1.654-0.922,3.475-1.383,5.455-1.383
		c1.982,0,3.796,0.461,5.441,1.383c1.646,0.921,2.949,2.205,3.91,3.85c0.961,1.646,1.441,3.499,1.441,5.56
		c0,2.062-0.48,3.916-1.441,5.561s-2.271,2.934-3.924,3.865c-1.656,0.932-3.465,1.396-5.427,1.396
		C144.659,44.523,142.84,44.057,141.184,43.125z M149.674,37.105c0.713-0.843,1.07-1.978,1.07-3.404c0-1.447-0.357-2.592-1.07-3.434
		c-0.715-0.843-1.725-1.265-3.033-1.265c-1.328,0-2.35,0.421-3.063,1.265c-0.714,0.842-1.07,1.986-1.07,3.434
		c0,1.427,0.356,2.562,1.07,3.404c0.713,0.842,1.732,1.264,3.063,1.264C147.949,38.368,148.959,37.947,149.674,37.105z"/>
	<path fill="#FEFEFF" d="M176.104,34.102c-0.613,1.082-1.521,1.938-2.721,2.572c-1.199,0.635-2.65,0.951-4.355,0.951h-2.615v6.689
		h-6.602v-21.05h9.217c2.576,0,4.555,0.654,5.932,1.962c1.379,1.308,2.066,3.063,2.066,5.263
		C177.025,31.816,176.719,33.021,176.104,34.102z M170.336,30.488c0-1.289-0.684-1.933-2.051-1.933h-1.873v3.865h1.873
		C169.652,32.422,170.336,31.777,170.336,30.488z"/>
	<path fill="#FEFEFF" d="M204.408,23.264v21.051h-6.57V33.818l-3.24,10.496h-5.648l-3.24-10.496v10.496h-6.602v-21.05h8.088
		l4.639,12.636l4.52-12.636L204.408,23.264L204.408,23.264z"/>
	<path fill="#FEFEFF" d="M220.881,41.133h-7.018l-1.039,3.182h-6.93l7.701-21.05h7.611l7.67,21.05h-6.957L220.881,41.133z
		 M219.275,36.168l-1.902-5.857l-1.904,5.857H219.275z"/>
	<path fill="#FEFEFF" d="M250.553,44.314h-6.6l-6.988-10.584v10.584h-6.6V23.264h6.6l6.988,10.764V23.264h6.6V44.314L250.553,44.314
		z"/>
	<path fill="#FEFEFF" d="M260.127,23.264v21.051h-6.602V23.264H260.127z"/>
	<path fill="#FEFEFF" d="M276.598,41.133h-7.018l-1.041,3.182h-6.928l7.701-21.05h7.609l7.672,21.05h-6.957L276.598,41.133z
		 M274.992,36.168l-1.902-5.857l-1.902,5.857H274.992z"/>
</g>
</svg>
