<?xml version="1.0" encoding="utf-8"?>
<!-- Generator: Adobe Illustrator 16.0.0, SVG Export Plug-In . SVG Version: 6.00 Build 0)  -->
<!DOCTYPE svg PUBLIC "-//W3C//DTD SVG 1.1//EN" "http://www.w3.org/Graphics/SVG/1.1/DTD/svg11.dtd">
<svg version="1.1" id="Layer_1" xmlns="http://www.w3.org/2000/svg" xmlns:xlink="http://www.w3.org/1999/xlink" x="0px" y="0px"
	 width="295.75px" height="76px" viewBox="41.5 13.25 295.75 76" enable-background="new 41.5 13.25 295.75 76"
	 xml:space="preserve">
<path fill="#FF324D" d="M135.946,77.447l-0.724-3.651c-0.175-1.039-0.407-2.069-0.616-3.104l-0.696-3.511l0,0
	c-0.426-2.149-0.851-4.301-1.277-6.45h0.002l-5.526-27.979c0-0.001,0-0.001,0-0.002c0.004-0.141-0.003-0.294-0.086-0.367
	c-0.404-0.871-2.133-1.318-2.133-1.318v0c-0.933-0.369-1.903-0.607-2.989-0.417c-0.864,0.151-1.764,0.103-2.778,0.15
	c0.133-0.473,0.21-0.791,0.314-1.101c0.433-1.301,0.872-2.601,1.313-3.899c0,0,0.207-0.526,0.209-1.25
	c0.022-0.072,0.033-0.154,0.017-0.25c-0.012-0.066-0.03-0.13-0.042-0.195c-0.02-0.163-0.048-0.331-0.096-0.502
	c0,0-0.035-0.754-0.499-1.607c-0.003-0.006-0.006-0.013-0.01-0.019c-0.252-0.457-0.626-0.941-1.191-1.351v0.01
	c-0.909-0.77-2.014-1.183-3.229-1.351c-0.362-0.05-0.573,0.082-0.309,0.474c-0.422-0.823-1.29-0.497-1.938-0.738
	c-1.477-0.549-3-0.685-4.55-0.401c-2.602,0.476-4.825,1.59-6.33,3.811c-0.003,0-0.015,0-0.015,0s-0.447,0.543-0.787,1.397
	c-0.011,0.021-0.019,0.044-0.026,0.069c-0.108,0.283-0.205,0.596-0.268,0.935c0,0.005,0,0.008-0.001,0.013
	c-0.799,2.307-1.568,4.625-2.38,6.928c-0.098,0.278-0.276,0.542-0.48,0.778c-0.596,0.177-1.033,0.723-1.033,1.376
	c0,0.797,0.646,1.442,1.442,1.442c0.796,0,1.442-0.646,1.442-1.442c0-0.457-0.216-0.858-0.547-1.122
	c-0.066-0.275-0.007-0.535,0.096-0.835c0.659-1.919,1.305-3.843,1.954-5.765l0.001-0.002c0.087-0.257,0.175-0.514,0.261-0.771
	c0.25-0.722,0.622-1.759,0.875-2.286c1.231-2.108,3.153-3.25,5.51-3.731c0.897-0.184,1.845-0.132,2.769-0.189
	c-0.025,0.284-0.05,0.346-0.095,0.365c-0.207,0.088-0.419,0.163-0.628,0.246c-2.216,0.87-3.863,2.255-4.822,4.246
	c-0.004,0.003-0.01,0.001-0.014,0.005c-0.256,0.217-1.742,4.919-1.742,4.919l0.003,0.002c-0.113,0.344-0.217,0.689-0.294,1.041
	c-0.244,1.122-0.81,1.542-1.957,1.533c-1.259-0.011-1.435,0.361-0.996,1.557c0.347,0.943-0.007,1.938-0.855,2.396
	c-0.818,0.444-1.871,0.219-2.427-0.521c-0.608-0.808-0.506-1.881,0.248-2.6c0.17-0.162,0.346-0.317,0.563-0.517
	c-0.169-0.083-0.24-0.149-0.309-0.146c-0.512,0.019-1.023,0.039-1.536,0.058l0.001,0l-0.083,0.004
	c-1.23,0.045-2.46,0.094-3.689,0.172c-0.015,0.001-0.029,0.011-0.044,0.014l-0.7,0.034c-0.162,0.001-0.413-0.05-0.458,0.023
	l-2.702,4.931l1.298-0.014c4.447,0.003,8.895,0.009,13.341-0.015l-0.001,0.001l2.887,0.207c0.703,0.292,1.078,0.859,1.045,1.646
	c-0.042,1.02-0.75,1.614-1.96,1.621c-1.463,0.008-2.926,0.001-4.389,0.001c-10.703,0-21.406,0-32.109,0.001
	c-0.254,0-0.528-0.052-0.752,0.028c-0.006,0.002-0.009,0.009-0.014,0.012H67.43c-0.032-0.002-0.065-0.001-0.098,0h-0.755
	c0,0,0-0.005-0.001-0.005c-0.147,0.003-0.294,0.003-0.441,0.005h-2.81v0.106c-0.112,0.012-0.225,0.017-0.337,0.033
	c-0.69,0.097-1.126,0.792-0.972,1.462c0.121,0.526,0.542,1.097,0.995,1.403c0.102,0.069,0.208,0.108,0.314,0.13v0.019h36.632
	c0.217,0.015,0.432,0.042,0.64,0.09c0.789,0.187,1.286,0.883,1.269,1.677c-0.018,0.798-0.539,1.44-1.334,1.63
	c-0.109,0.026-0.218,0.047-0.316,0.065H71.519v0.027c-0.241,0.003-0.482,0.001-0.723,0.006c-0.937,0.018-1.548,0.683-1.551,1.545
	c-0.002,0.855,0.618,1.519,1.543,1.553c0.243,0.009,0.487,0.009,0.731,0.015v0.008h0.441c0.243,0.003,0.486,0.002,0.729,0h11.659
	c0.003,0,0.004,0,0.007,0c0.015,0,0.03,0,0.044,0h2.275c0.099,0.003,0.199,0.001,0.298,0.006c0.131,0.005,0.25,0.003,0.362-0.006
	h1.756c0.002,0.056-0.001,0.109,0.004,0.165c0.146-0.061,0.29-0.114,0.433-0.165h1.91c0.103,0.083,0.226,0.108,0.394,0h0.976
	c1.086,0.161,2.107,0.639,1.915,1.895c-0.312,1.218-0.84,1.594-2.231,1.596c-3.492,0.005-6.983-0.004-10.476,0.013
	c-0.197,0.001-0.5-0.085-0.654,0.033h-1.026c-0.031-0.005-0.063-0.019-0.094-0.021c-2.854-0.042-5.709-0.041-8.563,0
	c-0.033,0-0.066,0.016-0.098,0.021H70.31c-0.008-0.003-0.017-0.017-0.026-0.017c-1.914-0.03-3.83-0.03-5.745,0.002
	c-0.008,0-0.016,0.012-0.024,0.015h-1.206c-0.03-0.005-0.059-0.019-0.088-0.019c-2.895-0.041-5.791-0.041-8.686-0.002
	c-0.032,0-0.064,0.014-0.096,0.021h-3.744v0.004c-0.237,0.001-0.474-0.002-0.711,0c-1.039,0.007-1.696,0.652-1.677,1.589
	c0.016,0.825,0.766,1.543,1.664,1.556c0.801,0.011,1.603,0.019,2.404,0.005h16.014c0.087,0.078,0.248,0.045,0.39,0h27.686
	c0.886,0.121,1.434,0.652,1.527,1.458c0.131,1.136-0.626,1.954-1.877,1.963c-2.401,0.017-4.801,0.001-7.202,0.017h-0.405
	c-0.162-0.002-0.411-0.072-0.558,0h-1.668c-1.253-0.026-2.508,0.014-3.76-0.023c-0.154-0.005-0.298,0.004-0.434,0.023h-1.211
	c-0.065-0.008-0.137-0.014-0.221-0.012c-0.731,0.01-1.463,0-2.194,0c-2.362,0-4.725-0.006-7.087,0.012c-0.149,0-0.397-0.063-0.539,0
	h-1.76c-1.114-0.023-2.229-0.023-3.344,0H63.98c-0.139-0.053-0.374,0-0.52,0c-2.106-0.018-4.214-0.02-6.32-0.005
	c-1.039,0.007-1.696,0.652-1.677,1.588c0.016,0.825,0.766,1.544,1.664,1.557c0.356,0.005,0.713,0.009,1.07,0.014v0.001H58.3
	c0.282,0.004,0.563,0.001,0.845,0h15.866c0.612,0.041,1.279,0.041,1.902,0h6.447c0.2,0.008,0.4,0.01,0.6,0.021
	c0.54,0.029,1.241,0.257,1.541,0.646c0.315,0.41,0.417,1.164,0.292,1.692c-0.185,0.779-0.887,1.097-1.706,1.094
	c-2.785-0.008-5.571,0.007-8.356-0.01c-0.62-0.004-1.102,0.18-1.394,0.738c-0.871,1.667-1.736,3.338-2.597,5.012
	c-0.096,0.186-0.144,0.396-0.222,0.617c0.173,0.058,0.275,0.107,0.382,0.124c2.231,0.361,4.463,0.72,6.694,1.08h-0.002l13.457,2.188
	c0.059,0.009,0.118,0.019,0.176,0.029l13.792,2.241c0.044,0.008,0.087,0.015,0.13,0.021l0.023,0.003c0,0,4.66,1.321,12.886-0.256
	l1.307-0.103c0.496-0.038,0.991-0.074,1.487-0.112c0.03-0.002,0.054-0.009,0.08-0.011l4.659-0.366
	c0.896-0.064,1.79-0.135,2.685-0.211l3.911-0.307c-0.001,0.004-0.002,0.008-0.004,0.013
	C134.204,77.592,135.053,77.521,135.946,77.447z M104.544,31.258c0.186-0.552,0.38-1.119,0.573-1.69l0.001,0.001l1.208-3.571
	c0.025-0.074,0.052-0.146,0.076-0.222l0.363-1.073c1.13-2.833,3.441-4.198,6.422-4.701c0.292-0.049,0.667,0.078,0.934,0.239
	c1.26,0.763,1.938,1.916,2.002,3.308c0,0.013,0,0.027,0.001,0.04c0.005,0.147-0.005,0.302-0.014,0.455
	c-0.037,0.369-0.123,0.79-0.23,1.205c-0.018,0.04-0.028,0.076-0.03,0.111c-0.179,0.673-0.4,1.313-0.528,1.663
	c-0.007,0.02-0.018,0.039-0.025,0.058c-0.017,0.044-0.031,0.09-0.047,0.135c-0.02,0.052-0.032,0.086-0.032,0.086l0.004-0.002
	c-0.605,1.694-1.146,3.411-1.752,5.105c-0.076,0.21-0.227,0.392-0.375,0.577c-0.706,0.091-1.252,0.687-1.252,1.417
	c0,0.792,0.643,1.435,1.436,1.435c0.792,0,1.435-0.643,1.435-1.435c0-0.427-0.19-0.806-0.485-1.069
	c0.008-0.323,0.122-0.636,0.235-0.965c0.646-1.887,1.284-3.776,1.92-5.667h0l0.003-0.011c0.029-0.088,0.059-0.175,0.089-0.263
	c0.083-0.248,0.166-0.494,0.249-0.741c0.048-0.142,0.063-0.3,0.102-0.533l0.184-0.643c0.082-0.175,0.133-0.357,0.156-0.545
	l0.008-0.03l-0.004-0.014c0.043-0.426-0.035-0.877-0.178-1.328c-0.022-0.072-0.048-0.143-0.075-0.213
	c-0.229-0.597-0.596-1.149-0.878-1.731c-0.113-0.233-0.186-0.485-0.276-0.729c1.271,0.426,2.451,0.996,3.378,1.964
	c0.017,0.033,0.906,1.755,0.712,3.227c0,0,0,0.001,0,0.002c-0.519,1.672-1.042,3.343-1.521,5.027c-0.163,0.573-0.5,0.826-1.03,0.741
	c-1.424-0.229-2.048,0.501-2.223,1.783c-0.05,0.366-0.097,0.783,0.029,1.11c0.34,0.886-0.102,1.58-0.432,2.313
	c-0.206,0.06-0.417,0.107-0.619,0.182c-0.748,0.278-1.443,0.184-2.021-0.362c-0.143-0.135-0.258-0.278-0.351-0.427
	c-0.01-0.023-0.024-0.047-0.04-0.071c-0.123-0.221-0.196-0.456-0.219-0.705c-0.017-0.541,0.213-1.184,0.512-1.776
	c0.615,0.063,1.007-0.53,1.123-1.779c-0.697,0-1.395-0.044-2.082,0.025c-0.002,0-0.005,0.002-0.009,0.003L104.544,31.258z
	 M93.182,66.038c-0.046,0.009-0.092,0.01-0.137,0.005l0,0C93.09,66.048,93.136,66.047,93.182,66.038z"/>
<g>
	<path fill="#FF324D" d="M167.487,63.652v3.043h3.317v0.979h-3.317v3.135h3.709v0.979h-4.897v-9.116h4.897v0.979H167.487z"/>
	<path fill="#FF324D" d="M176.733,71.789l-1.698-2.664l-1.632,2.664h-1.241l2.312-3.553l-2.312-3.604h1.345l1.698,2.651l1.619-2.651
		h1.241l-2.299,3.539l2.312,3.618H176.733z"/>
	<path fill="#FF324D" d="M181.493,64.926c0.466-0.274,1.008-0.411,1.626-0.411c0.636,0,1.213,0.152,1.73,0.457
		c0.519,0.305,0.926,0.733,1.222,1.286c0.296,0.554,0.444,1.195,0.444,1.927c0,0.723-0.148,1.367-0.444,1.933
		c-0.296,0.566-0.703,1.006-1.222,1.319c-0.518,0.313-1.095,0.47-1.73,0.47c-0.609,0-1.146-0.137-1.612-0.411
		s-0.821-0.616-1.064-1.025v4.715h-1.188V64.632h1.188v1.319C180.678,65.542,181.027,65.2,181.493,64.926z M184.974,66.774
		c-0.218-0.4-0.511-0.706-0.881-0.915s-0.777-0.313-1.222-0.313c-0.436,0-0.838,0.107-1.208,0.32
		c-0.37,0.214-0.666,0.522-0.888,0.928c-0.223,0.404-0.333,0.873-0.333,1.403c0,0.54,0.11,1.013,0.333,1.417
		c0.222,0.405,0.518,0.714,0.888,0.928c0.37,0.213,0.772,0.319,1.208,0.319c0.444,0,0.852-0.106,1.222-0.319
		c0.37-0.214,0.663-0.522,0.881-0.928c0.218-0.404,0.327-0.881,0.327-1.43C185.301,67.645,185.191,67.175,184.974,66.774z"/>
	<path fill="#FF324D" d="M194.572,68.654h-5.72c0.043,0.705,0.285,1.256,0.725,1.652s0.973,0.595,1.6,0.595
		c0.514,0,0.942-0.12,1.287-0.359c0.344-0.239,0.585-0.56,0.725-0.96h1.279c-0.191,0.688-0.574,1.247-1.148,1.678
		c-0.575,0.432-1.289,0.646-2.143,0.646c-0.679,0-1.286-0.152-1.821-0.457c-0.536-0.305-0.956-0.737-1.261-1.299
		s-0.457-1.213-0.457-1.953c0-0.739,0.148-1.389,0.444-1.945c0.296-0.558,0.712-0.986,1.247-1.287c0.535-0.3,1.151-0.45,1.848-0.45
		c0.68,0,1.28,0.148,1.803,0.444s0.925,0.703,1.208,1.221c0.283,0.519,0.425,1.104,0.425,1.757
		C194.612,68.163,194.599,68.402,194.572,68.654z M193.084,66.52c-0.2-0.327-0.473-0.575-0.816-0.745
		c-0.344-0.169-0.725-0.254-1.143-0.254c-0.601,0-1.112,0.191-1.535,0.574c-0.422,0.384-0.664,0.914-0.725,1.594h4.519
		C193.384,67.235,193.284,66.846,193.084,66.52z"/>
	<path fill="#FF324D" d="M196.18,66.258c0.296-0.553,0.707-0.981,1.234-1.286c0.526-0.305,1.129-0.457,1.809-0.457
		c0.879,0,1.604,0.213,2.175,0.64c0.569,0.427,0.946,1.019,1.129,1.776h-1.279c-0.122-0.436-0.359-0.779-0.712-1.032
		c-0.353-0.252-0.79-0.378-1.313-0.378c-0.68,0-1.228,0.232-1.646,0.698s-0.627,1.126-0.627,1.979c0,0.862,0.209,1.528,0.627,1.998
		c0.418,0.471,0.966,0.706,1.646,0.706c0.522,0,0.958-0.122,1.306-0.366c0.349-0.243,0.588-0.592,0.719-1.045h1.279
		c-0.191,0.731-0.574,1.317-1.149,1.757c-0.574,0.439-1.293,0.659-2.154,0.659c-0.68,0-1.282-0.152-1.809-0.457
		c-0.527-0.305-0.938-0.735-1.234-1.293c-0.296-0.557-0.444-1.21-0.444-1.959C195.735,67.458,195.884,66.812,196.18,66.258z"/>
	<path fill="#FF324D" d="M205.557,65.611v4.219c0,0.349,0.074,0.594,0.223,0.738c0.147,0.144,0.404,0.215,0.771,0.215h0.875v1.006
		h-1.071c-0.662,0-1.158-0.152-1.489-0.457c-0.33-0.305-0.496-0.806-0.496-1.502v-4.219h-0.927v-0.979h0.927V62.83h1.188v1.802
		h1.868v0.979H205.557z"/>
	<path fill="#FF324D" d="M222.443,64.848c0.435,0.23,0.778,0.577,1.031,1.038c0.253,0.462,0.379,1.023,0.379,1.685v4.219h-1.176
		V67.74c0-0.714-0.176-1.26-0.528-1.639s-0.83-0.568-1.431-0.568c-0.618,0-1.109,0.198-1.476,0.595
		c-0.365,0.396-0.549,0.968-0.549,1.717v3.944h-1.175V67.74c0-0.714-0.177-1.26-0.529-1.639s-0.829-0.568-1.43-0.568
		c-0.618,0-1.11,0.198-1.477,0.595c-0.365,0.396-0.548,0.968-0.548,1.717v3.944h-1.188v-7.157h1.188v1.032
		c0.235-0.374,0.551-0.662,0.946-0.862c0.396-0.2,0.834-0.301,1.313-0.301c0.602,0,1.132,0.136,1.594,0.405
		c0.461,0.271,0.806,0.666,1.032,1.188c0.2-0.505,0.53-0.896,0.992-1.176c0.461-0.278,0.975-0.418,1.541-0.418
		C221.511,64.501,222.008,64.617,222.443,64.848z"/>
	<path fill="#FF324D" d="M227.099,71.449c-0.544-0.305-0.971-0.737-1.279-1.299c-0.31-0.562-0.464-1.213-0.464-1.953
		c0-0.731,0.159-1.378,0.477-1.939c0.318-0.562,0.751-0.992,1.3-1.293c0.549-0.3,1.162-0.45,1.842-0.45
		c0.679,0,1.293,0.15,1.841,0.45c0.549,0.301,0.981,0.729,1.3,1.287c0.317,0.557,0.477,1.206,0.477,1.945
		c0,0.74-0.163,1.392-0.489,1.953c-0.327,0.562-0.769,0.994-1.326,1.299s-1.175,0.457-1.854,0.457
		C228.25,71.906,227.644,71.754,227.099,71.449z M230.122,70.562c0.375-0.2,0.678-0.501,0.908-0.901s0.346-0.888,0.346-1.463
		c0-0.574-0.113-1.062-0.339-1.463c-0.227-0.4-0.522-0.698-0.889-0.895c-0.365-0.195-0.762-0.294-1.188-0.294
		c-0.436,0-0.834,0.099-1.194,0.294c-0.362,0.196-0.651,0.494-0.869,0.895c-0.218,0.401-0.326,0.889-0.326,1.463
		c0,0.584,0.106,1.075,0.319,1.476c0.214,0.401,0.499,0.699,0.855,0.896c0.357,0.195,0.749,0.293,1.176,0.293
		S229.748,70.762,230.122,70.562z"/>
	<path fill="#FF324D" d="M236.241,64.841c0.387-0.227,0.859-0.34,1.417-0.34v1.229h-0.313c-1.332,0-1.998,0.723-1.998,2.168v3.892
		h-1.188v-7.157h1.188v1.162C235.556,65.386,235.854,65.067,236.241,64.841z"/>
	<path fill="#FF324D" d="M245.521,68.654h-5.72c0.043,0.705,0.285,1.256,0.725,1.652s0.973,0.595,1.6,0.595
		c0.514,0,0.942-0.12,1.287-0.359c0.344-0.239,0.585-0.56,0.725-0.96h1.279c-0.191,0.688-0.574,1.247-1.148,1.678
		c-0.575,0.432-1.289,0.646-2.143,0.646c-0.679,0-1.286-0.152-1.821-0.457c-0.536-0.305-0.956-0.737-1.261-1.299
		s-0.457-1.213-0.457-1.953c0-0.739,0.148-1.389,0.444-1.945c0.296-0.558,0.712-0.986,1.247-1.287c0.535-0.3,1.151-0.45,1.848-0.45
		c0.68,0,1.28,0.148,1.803,0.444s0.925,0.703,1.208,1.221c0.283,0.519,0.425,1.104,0.425,1.757
		C245.561,68.163,245.547,68.402,245.521,68.654z M244.032,66.52c-0.2-0.327-0.473-0.575-0.816-0.745
		c-0.344-0.169-0.725-0.254-1.143-0.254c-0.601,0-1.112,0.191-1.535,0.574c-0.422,0.384-0.664,0.914-0.725,1.594h4.519
		C244.332,67.235,244.232,66.846,244.032,66.52z"/>
	<path fill="#FF324D" d="M246.931,71.633c-0.156-0.157-0.235-0.349-0.235-0.575s0.079-0.418,0.235-0.574
		c0.157-0.157,0.349-0.235,0.575-0.235c0.217,0,0.402,0.078,0.555,0.235c0.152,0.156,0.229,0.348,0.229,0.574
		s-0.076,0.418-0.229,0.575c-0.152,0.156-0.338,0.234-0.555,0.234C247.279,71.867,247.088,71.789,246.931,71.633z"/>
	<path fill="#FF324D" d="M258.665,67.237c-0.518,0.501-1.308,0.751-2.37,0.751h-1.75v3.801h-1.188v-9.103h2.938
		c1.027,0,1.809,0.248,2.344,0.744c0.536,0.496,0.804,1.136,0.804,1.92C259.442,66.107,259.184,66.737,258.665,67.237z
		 M257.758,66.578c0.313-0.287,0.47-0.696,0.47-1.228c0-1.123-0.645-1.685-1.933-1.685h-1.75v3.343h1.75
		C256.956,67.009,257.444,66.865,257.758,66.578z"/>
	<path fill="#FF324D" d="M260.918,66.258c0.296-0.553,0.703-0.981,1.221-1.286c0.519-0.305,1.095-0.457,1.73-0.457
		c0.627,0,1.171,0.135,1.633,0.404c0.461,0.271,0.805,0.61,1.031,1.02v-1.307h1.202v7.157h-1.202v-1.332
		c-0.234,0.418-0.585,0.764-1.051,1.038s-1.008,0.411-1.626,0.411c-0.636,0-1.211-0.156-1.724-0.47
		c-0.515-0.313-0.919-0.753-1.215-1.319c-0.296-0.565-0.444-1.21-0.444-1.933C260.474,67.453,260.622,66.812,260.918,66.258z
		 M266.207,66.787c-0.218-0.4-0.512-0.707-0.882-0.921c-0.37-0.213-0.776-0.32-1.221-0.32s-0.849,0.104-1.215,0.313
		c-0.365,0.209-0.657,0.515-0.875,0.915s-0.326,0.87-0.326,1.41c0,0.549,0.108,1.025,0.326,1.43c0.218,0.405,0.51,0.714,0.875,0.928
		c0.366,0.213,0.771,0.319,1.215,0.319s0.851-0.106,1.221-0.319c0.37-0.214,0.664-0.522,0.882-0.928
		c0.218-0.404,0.326-0.877,0.326-1.417C266.533,67.658,266.425,67.188,266.207,66.787z"/>
	<path fill="#FF324D" d="M275.911,64.632l-4.31,10.526h-1.228l1.41-3.447l-2.887-7.079h1.319l2.246,5.799l2.221-5.799H275.911z"/>
	<path fill="#FF324D" d="M281.775,70.822h3.187v0.967h-4.375v-9.103h1.188V70.822z"/>
	<path fill="#FF324D" d="M292.719,68.654h-5.72c0.043,0.705,0.285,1.256,0.725,1.652s0.973,0.595,1.6,0.595
		c0.514,0,0.942-0.12,1.287-0.359c0.344-0.239,0.585-0.56,0.725-0.96h1.279c-0.191,0.688-0.574,1.247-1.148,1.678
		c-0.575,0.432-1.289,0.646-2.143,0.646c-0.679,0-1.286-0.152-1.821-0.457c-0.536-0.305-0.956-0.737-1.261-1.299
		s-0.457-1.213-0.457-1.953c0-0.739,0.148-1.389,0.444-1.945c0.296-0.558,0.712-0.986,1.247-1.287c0.535-0.3,1.151-0.45,1.848-0.45
		c0.68,0,1.28,0.148,1.803,0.444s0.925,0.703,1.208,1.221c0.283,0.519,0.425,1.104,0.425,1.757
		C292.759,68.163,292.745,68.402,292.719,68.654z M291.23,66.52c-0.2-0.327-0.473-0.575-0.816-0.745
		c-0.344-0.169-0.725-0.254-1.143-0.254c-0.601,0-1.112,0.191-1.535,0.574c-0.422,0.384-0.664,0.914-0.725,1.594h4.519
		C291.53,67.235,291.431,66.846,291.23,66.52z"/>
	<path fill="#FF324D" d="M295.384,71.626c-0.436-0.188-0.779-0.448-1.031-0.784c-0.253-0.335-0.393-0.72-0.418-1.155h1.228
		c0.034,0.357,0.202,0.648,0.503,0.875c0.3,0.227,0.693,0.34,1.182,0.34c0.452,0,0.81-0.101,1.071-0.301
		c0.261-0.2,0.392-0.452,0.392-0.758c0-0.313-0.14-0.546-0.418-0.698c-0.279-0.152-0.71-0.303-1.293-0.451
		c-0.531-0.139-0.965-0.28-1.3-0.424s-0.622-0.357-0.862-0.641c-0.239-0.282-0.358-0.654-0.358-1.116
		c0-0.365,0.108-0.701,0.326-1.006s0.526-0.546,0.928-0.725c0.4-0.179,0.857-0.268,1.371-0.268c0.792,0,1.432,0.2,1.92,0.601
		c0.487,0.4,0.748,0.949,0.783,1.646h-1.188c-0.026-0.374-0.176-0.675-0.45-0.901c-0.274-0.226-0.643-0.339-1.104-0.339
		c-0.427,0-0.767,0.091-1.019,0.273c-0.253,0.184-0.379,0.423-0.379,0.719c0,0.235,0.076,0.429,0.229,0.581s0.344,0.274,0.574,0.366
		c0.23,0.091,0.551,0.193,0.96,0.307c0.514,0.14,0.932,0.276,1.254,0.411c0.322,0.136,0.599,0.338,0.829,0.607
		c0.23,0.271,0.351,0.623,0.359,1.058c0,0.393-0.109,0.745-0.326,1.059c-0.218,0.313-0.525,0.56-0.921,0.737
		c-0.396,0.179-0.852,0.268-1.365,0.268C296.312,71.906,295.819,71.813,295.384,71.626z"/>
	<path fill="#FF324D" d="M302.201,71.626c-0.436-0.188-0.779-0.448-1.031-0.784c-0.253-0.335-0.393-0.72-0.418-1.155h1.228
		c0.034,0.357,0.202,0.648,0.503,0.875c0.3,0.227,0.693,0.34,1.182,0.34c0.452,0,0.81-0.101,1.071-0.301
		c0.261-0.2,0.392-0.452,0.392-0.758c0-0.313-0.14-0.546-0.418-0.698c-0.279-0.152-0.71-0.303-1.293-0.451
		c-0.531-0.139-0.965-0.28-1.3-0.424s-0.622-0.357-0.862-0.641c-0.239-0.282-0.358-0.654-0.358-1.116
		c0-0.365,0.108-0.701,0.326-1.006s0.526-0.546,0.928-0.725c0.4-0.179,0.857-0.268,1.371-0.268c0.792,0,1.432,0.2,1.92,0.601
		c0.487,0.4,0.748,0.949,0.783,1.646h-1.188c-0.026-0.374-0.176-0.675-0.45-0.901c-0.274-0.226-0.643-0.339-1.104-0.339
		c-0.427,0-0.767,0.091-1.019,0.273c-0.253,0.184-0.379,0.423-0.379,0.719c0,0.235,0.076,0.429,0.229,0.581s0.344,0.274,0.574,0.366
		c0.23,0.091,0.551,0.193,0.96,0.307c0.514,0.14,0.932,0.276,1.254,0.411c0.322,0.136,0.599,0.338,0.829,0.607
		c0.23,0.271,0.351,0.623,0.359,1.058c0,0.393-0.109,0.745-0.326,1.059c-0.218,0.313-0.525,0.56-0.921,0.737
		c-0.396,0.179-0.852,0.268-1.365,0.268C303.129,71.906,302.637,71.813,302.201,71.626z"/>
</g>
<g>
	<path fill="#FF324D" d="M141.495,55.125c-1.635-1.18-2.523-2.909-2.661-5.188h7.017c0.099,1.209,0.634,1.813,1.605,1.813
		c0.357,0,0.659-0.084,0.907-0.253c0.248-0.168,0.372-0.431,0.372-0.788c0-0.495-0.268-0.896-0.803-1.204
		c-0.535-0.307-1.368-0.659-2.498-1.056c-1.348-0.476-2.463-0.941-3.345-1.397c-0.882-0.456-1.641-1.12-2.275-1.992
		s-0.941-1.992-0.921-3.36c0-1.368,0.352-2.532,1.055-3.494c0.704-0.961,1.665-1.689,2.884-2.185
		c1.219-0.496,2.591-0.744,4.118-0.744c2.577,0,4.624,0.595,6.14,1.784c1.517,1.189,2.314,2.864,2.394,5.024h-7.106
		c-0.02-0.594-0.168-1.021-0.446-1.278c-0.278-0.257-0.615-0.386-1.011-0.386c-0.278,0-0.505,0.094-0.684,0.282
		c-0.179,0.188-0.268,0.451-0.268,0.788c0,0.476,0.262,0.867,0.788,1.174c0.525,0.308,1.363,0.679,2.513,1.115
		c1.328,0.496,2.423,0.972,3.285,1.427c0.862,0.456,1.61,1.09,2.245,1.903c0.634,0.813,0.952,1.833,0.952,3.063
		c0,1.289-0.317,2.443-0.952,3.463c-0.634,1.021-1.556,1.819-2.765,2.394c-1.209,0.575-2.646,0.862-4.312,0.862
		C145.206,56.894,143.13,56.304,141.495,55.125z"/>
	<path fill="#FF324D" d="M177.544,35.635v21.05h-6.601v-8.206h-6.273v8.206h-6.6v-21.05h6.6v7.582h6.273v-7.582H177.544z"/>
	<path fill="#FF324D" d="M185.319,55.496c-1.655-0.932-2.969-2.22-3.939-3.865c-0.972-1.645-1.457-3.499-1.457-5.56
		s0.485-3.915,1.457-5.56c0.971-1.645,2.284-2.929,3.939-3.85c1.654-0.922,3.474-1.383,5.455-1.383c1.982,0,3.796,0.461,5.441,1.383
		c1.646,0.921,2.948,2.205,3.91,3.85c0.961,1.646,1.441,3.499,1.441,5.56s-0.48,3.915-1.441,5.56
		c-0.962,1.645-2.271,2.933-3.925,3.865c-1.655,0.932-3.464,1.397-5.427,1.397C188.793,56.894,186.974,56.428,185.319,55.496z
		 M193.808,49.476c0.714-0.842,1.07-1.977,1.07-3.404c0-1.447-0.356-2.591-1.07-3.434c-0.714-0.842-1.725-1.264-3.033-1.264
		c-1.328,0-2.349,0.421-3.062,1.264c-0.714,0.843-1.07,1.987-1.07,3.434c0,1.427,0.356,2.562,1.07,3.404
		c0.713,0.843,1.733,1.264,3.062,1.264C192.083,50.739,193.094,50.318,193.808,49.476z"/>
	<path fill="#FF324D" d="M220.238,46.473c-0.614,1.081-1.521,1.938-2.72,2.572c-1.2,0.635-2.651,0.951-4.356,0.951h-2.616v6.69
		h-6.601v-21.05h9.217c2.577,0,4.554,0.654,5.932,1.962s2.066,3.063,2.066,5.263C221.16,44.188,220.853,45.393,220.238,46.473z
		 M214.471,42.86c0-1.289-0.684-1.933-2.052-1.933h-1.873v3.865h1.873C213.787,44.793,214.471,44.149,214.471,42.86z"/>
	<path fill="#FF324D" d="M248.543,35.635v21.05h-6.57V46.19l-3.241,10.496h-5.648l-3.241-10.496v10.496h-6.601v-21.05h8.087
		l4.639,12.636l4.52-12.636H248.543z"/>
	<path fill="#FF324D" d="M265.016,53.504h-7.018l-1.04,3.182h-6.928l7.7-21.05h7.611l7.671,21.05h-6.957L265.016,53.504z
		 M263.41,48.539l-1.903-5.857l-1.903,5.857H263.41z"/>
	<path fill="#FF324D" d="M294.688,56.686h-6.601L281.1,46.101v10.584h-6.601v-21.05h6.601l6.987,10.763V35.635h6.601V56.686z"/>
	<path fill="#FF324D" d="M304.261,35.635v21.05h-6.601v-21.05H304.261z"/>
	<path fill="#FF324D" d="M320.732,53.504h-7.018l-1.04,3.182h-6.928l7.7-21.05h7.611l7.671,21.05h-6.957L320.732,53.504z
		 M319.127,48.539l-1.903-5.857l-1.903,5.857H319.127z"/>
</g>
</svg>
